
  <svg width='624px'
       height='313.5px'
       viewBox='0 0 624 313.5'
       xmlns='http://www.w3.org/2000/svg'
       xmlns:xlink="http://www.w3.org/1999/xlink">

    <style type='text/css'>
    .keycap .border { stroke: black; stroke-width: 2; }
    .keycap .inner.border { stroke: rgba(0,0,0,.1); }
    </style>
    <defs>
      <linearGradient id="DCS">
        <stop offset="0%" stop-color="black" stop-opacity="0"/>
        <stop offset="40%" stop-color="black" stop-opacity="0.1"/>
        <stop offset="60%" stop-color="black" stop-opacity="0.1"/>
        <stop offset="100%" stop-color="black" stop-opacity="0"/>
      </linearGradient>
      <linearGradient id="SPACE" x1="0%" x2="0%" y1="0%" y2="100%">
        <stop offset="0%" stop-color="black" stop-opacity="0.1"/>
        <stop offset="20%" stop-color="black" stop-opacity="0.0"/>
        <stop offset="40%" stop-color="black" stop-opacity="0.0"/>
        <stop offset="100%" stop-color="black" stop-opacity="0.1"/>
      </linearGradient>
      <radialGradient id="DSA">
        <stop offset="0%" stop-color="black" stop-opacity="0.1"/>
        <stop offset="10%" stop-color="black" stop-opacity="0.1"/>
        <stop offset="100%" stop-color="black" stop-opacity="0"/>
      </radialGradient>
      <radialGradient id="SA" xlink:href="#DSA" />
    </defs>

    <g transform='translate(10,10)'>
      <rect width="604" height="293.5"
            stroke="#ddd" stroke-width="1" fill="#eeeeee" rx="6"/>
      <g transform='translate(5,5)'>
        
  <g class='ghosted  keycap'
  >

  
    <!-- Outer Border -->
    <rect x="1" y="1"
          width="52" height="52"
          rx="5" fill="#cccccc" class="outer border"/>
    
    <!-- Outer Fill -->
    <rect x="1" y="1"
          width="52" height="52"
          rx="5" fill="#cccccc"/>
    

     
   
  </g>

  <g class='ghosted  keycap'
  >

  
    <!-- Outer Border -->
    <rect x="55" y="1"
          width="52" height="52"
          rx="5" fill="#cccccc" class="outer border"/>
    
    <!-- Outer Fill -->
    <rect x="55" y="1"
          width="52" height="52"
          rx="5" fill="#cccccc"/>
    

     
   
  </g>

  <g class='ghosted  keycap'
  >

  
    <!-- Outer Border -->
    <rect x="109" y="1"
          width="52" height="52"
          rx="5" fill="#cccccc" class="outer border"/>
    
    <!-- Outer Fill -->
    <rect x="109" y="1"
          width="52" height="52"
          rx="5" fill="#cccccc"/>
    

     
   
  </g>

  <g class='ghosted  keycap'
  >

  
    <!-- Outer Border -->
    <rect x="163" y="1"
          width="52" height="52"
          rx="5" fill="#cccccc" class="outer border"/>
    
    <!-- Outer Fill -->
    <rect x="163" y="1"
          width="52" height="52"
          rx="5" fill="#cccccc"/>
    

     
   
  </g>

  <g class='ghosted  keycap'
  >

  
    <!-- Outer Border -->
    <rect x="217" y="1"
          width="52" height="52"
          rx="5" fill="#cccccc" class="outer border"/>
    
    <!-- Outer Fill -->
    <rect x="217" y="1"
          width="52" height="52"
          rx="5" fill="#cccccc"/>
    

     
   
  </g>

  <g class='ghosted  keycap'
  >

  
    <!-- Outer Border -->
    <rect x="271" y="1"
          width="52" height="52"
          rx="5" fill="#cccccc" class="outer border"/>
    
    <!-- Outer Fill -->
    <rect x="271" y="1"
          width="52" height="52"
          rx="5" fill="#cccccc"/>
    

     
   
  </g>

  <g class='ghosted  keycap'
  >

  
    <!-- Outer Border -->
    <rect x="325" y="1"
          width="52" height="52"
          rx="5" fill="#cccccc" class="outer border"/>
    
    <!-- Outer Fill -->
    <rect x="325" y="1"
          width="52" height="52"
          rx="5" fill="#cccccc"/>
    

     
   
  </g>

  <g class='ghosted  keycap'
  >

  
    <!-- Outer Border -->
    <rect x="379" y="1"
          width="52" height="52"
          rx="5" fill="#cccccc" class="outer border"/>
    
    <!-- Outer Fill -->
    <rect x="379" y="1"
          width="52" height="52"
          rx="5" fill="#cccccc"/>
    

     
   
  </g>

  <g class='ghosted  keycap'
  >

  
    <!-- Outer Border -->
    <rect x="433" y="1"
          width="52" height="52"
          rx="5" fill="#cccccc" class="outer border"/>
    
    <!-- Outer Fill -->
    <rect x="433" y="1"
          width="52" height="52"
          rx="5" fill="#cccccc"/>
    

     
   
  </g>

  <g class='ghosted  keycap'
  >

  
    <!-- Outer Border -->
    <rect x="487" y="1"
          width="52" height="52"
          rx="5" fill="#cccccc" class="outer border"/>
    
    <!-- Outer Fill -->
    <rect x="487" y="1"
          width="52" height="52"
          rx="5" fill="#cccccc"/>
    

     
   
  </g>

  <g class='ghosted  keycap'
  >

  
    <!-- Outer Border -->
    <rect x="541" y="1"
          width="52" height="52"
          rx="5" fill="#cccccc" class="outer border"/>
    
    <!-- Outer Fill -->
    <rect x="541" y="1"
          width="52" height="52"
          rx="5" fill="#cccccc"/>
    

     
   
  </g>

  <g class='ghosted  keycap'
  >

  
    <!-- Outer Border -->
    <rect x="14.5" y="55"
          width="52" height="52"
          rx="5" fill="#cccccc" class="outer border"/>
    
    <!-- Outer Fill -->
    <rect x="14.5" y="55"
          width="52" height="52"
          rx="5" fill="#cccccc"/>
    

     
   
  </g>

  <g class='ghosted  keycap'
  >

  
    <!-- Outer Border -->
    <rect x="68.5" y="55"
          width="52" height="52"
          rx="5" fill="#cccccc" class="outer border"/>
    
    <!-- Outer Fill -->
    <rect x="68.5" y="55"
          width="52" height="52"
          rx="5" fill="#cccccc"/>
    

     
   
  </g>

  <g class='ghosted  keycap'
  >

  
    <!-- Outer Border -->
    <rect x="122.5" y="55"
          width="52" height="52"
          rx="5" fill="#cccccc" class="outer border"/>
    
    <!-- Outer Fill -->
    <rect x="122.5" y="55"
          width="52" height="52"
          rx="5" fill="#cccccc"/>
    

     
   
  </g>

  <g class='ghosted  keycap'
  >

  
    <!-- Outer Border -->
    <rect x="176.5" y="55"
          width="52" height="52"
          rx="5" fill="#cccccc" class="outer border"/>
    
    <!-- Outer Fill -->
    <rect x="176.5" y="55"
          width="52" height="52"
          rx="5" fill="#cccccc"/>
    

     
   
  </g>

  <g class='ghosted  keycap'
  >

  
    <!-- Outer Border -->
    <rect x="230.5" y="55"
          width="52" height="52"
          rx="5" fill="#cccccc" class="outer border"/>
    
    <!-- Outer Fill -->
    <rect x="230.5" y="55"
          width="52" height="52"
          rx="5" fill="#cccccc"/>
    

     
   
  </g>

  <g class='ghosted  keycap'
  >

  
    <!-- Outer Border -->
    <rect x="284.5" y="55"
          width="52" height="52"
          rx="5" fill="#cccccc" class="outer border"/>
    
    <!-- Outer Fill -->
    <rect x="284.5" y="55"
          width="52" height="52"
          rx="5" fill="#cccccc"/>
    

     
   
  </g>

  <g class='ghosted  keycap'
  >

  
    <!-- Outer Border -->
    <rect x="338.5" y="55"
          width="52" height="52"
          rx="5" fill="#cccccc" class="outer border"/>
    
    <!-- Outer Fill -->
    <rect x="338.5" y="55"
          width="52" height="52"
          rx="5" fill="#cccccc"/>
    

     
   
  </g>

  <g class='ghosted  keycap'
  >

  
    <!-- Outer Border -->
    <rect x="392.5" y="55"
          width="52" height="52"
          rx="5" fill="#cccccc" class="outer border"/>
    
    <!-- Outer Fill -->
    <rect x="392.5" y="55"
          width="52" height="52"
          rx="5" fill="#cccccc"/>
    

     
   
  </g>

  <g class='ghosted  keycap'
  >

  
    <!-- Outer Border -->
    <rect x="446.5" y="55"
          width="52" height="52"
          rx="5" fill="#cccccc" class="outer border"/>
    
    <!-- Outer Fill -->
    <rect x="446.5" y="55"
          width="52" height="52"
          rx="5" fill="#cccccc"/>
    

     
   
  </g>

  <g class='ghosted  keycap'
  >

  
    <!-- Outer Border -->
    <rect x="500.5" y="55"
          width="52" height="52"
          rx="5" fill="#cccccc" class="outer border"/>
    
    <!-- Outer Fill -->
    <rect x="500.5" y="55"
          width="52" height="52"
          rx="5" fill="#cccccc"/>
    

     
   
  </g>

  <g class='ghosted  keycap'
  >

  
    <!-- Outer Border -->
    <rect x="41.5" y="109"
          width="52" height="52"
          rx="5" fill="#cccccc" class="outer border"/>
    
    <!-- Outer Fill -->
    <rect x="41.5" y="109"
          width="52" height="52"
          rx="5" fill="#cccccc"/>
    

     
   
  </g>

  <g class='ghosted  keycap'
  >

  
    <!-- Outer Border -->
    <rect x="95.5" y="109"
          width="52" height="52"
          rx="5" fill="#cccccc" class="outer border"/>
    
    <!-- Outer Fill -->
    <rect x="95.5" y="109"
          width="52" height="52"
          rx="5" fill="#cccccc"/>
    

     
   
  </g>

  <g class='ghosted  keycap'
  >

  
    <!-- Outer Border -->
    <rect x="149.5" y="109"
          width="52" height="52"
          rx="5" fill="#cccccc" class="outer border"/>
    
    <!-- Outer Fill -->
    <rect x="149.5" y="109"
          width="52" height="52"
          rx="5" fill="#cccccc"/>
    

     
   
  </g>

  <g class='ghosted  keycap'
  >

  
    <!-- Outer Border -->
    <rect x="203.5" y="109"
          width="52" height="52"
          rx="5" fill="#cccccc" class="outer border"/>
    
    <!-- Outer Fill -->
    <rect x="203.5" y="109"
          width="52" height="52"
          rx="5" fill="#cccccc"/>
    

     
   
  </g>

  <g class='ghosted  keycap'
  >

  
    <!-- Outer Border -->
    <rect x="257.5" y="109"
          width="52" height="52"
          rx="5" fill="#cccccc" class="outer border"/>
    
    <!-- Outer Fill -->
    <rect x="257.5" y="109"
          width="52" height="52"
          rx="5" fill="#cccccc"/>
    

     
   
  </g>

  <g class='ghosted  keycap'
  >

  
    <!-- Outer Border -->
    <rect x="311.5" y="109"
          width="52" height="52"
          rx="5" fill="#cccccc" class="outer border"/>
    
    <!-- Outer Fill -->
    <rect x="311.5" y="109"
          width="52" height="52"
          rx="5" fill="#cccccc"/>
    

     
   
  </g>

  <g class='ghosted  keycap'
  >

  
    <!-- Outer Border -->
    <rect x="365.5" y="109"
          width="52" height="52"
          rx="5" fill="#cccccc" class="outer border"/>
    
    <!-- Outer Fill -->
    <rect x="365.5" y="109"
          width="52" height="52"
          rx="5" fill="#cccccc"/>
    

     
   
  </g>

  <g class='ghosted  keycap'
  >

  
    <!-- Outer Border -->
    <rect x="419.5" y="109"
          width="52" height="52"
          rx="5" fill="#cccccc" class="outer border"/>
    
    <!-- Outer Fill -->
    <rect x="419.5" y="109"
          width="52" height="52"
          rx="5" fill="#cccccc"/>
    

     
   
  </g>

  <g class='ghosted  keycap'
  >

  
    <!-- Outer Border -->
    <rect x="473.5" y="109"
          width="52" height="52"
          rx="5" fill="#cccccc" class="outer border"/>
    
    <!-- Outer Fill -->
    <rect x="473.5" y="109"
          width="52" height="52"
          rx="5" fill="#cccccc"/>
    

     
   
  </g>

  <g class='ghosted  keycap'
  >

  
    <!-- Outer Border -->
    <rect x="68.5" y="163"
          width="52" height="52"
          rx="5" fill="#cccccc" class="outer border"/>
    
    <!-- Outer Fill -->
    <rect x="68.5" y="163"
          width="52" height="52"
          rx="5" fill="#cccccc"/>
    

     
   
  </g>

  <g class='ghosted  keycap'
  >

  
    <!-- Outer Border -->
    <rect x="122.5" y="163"
          width="52" height="52"
          rx="5" fill="#cccccc" class="outer border"/>
    
    <!-- Outer Fill -->
    <rect x="122.5" y="163"
          width="52" height="52"
          rx="5" fill="#cccccc"/>
    

     
   
  </g>

  <g class='ghosted  keycap'
  >

  
    <!-- Outer Border -->
    <rect x="176.5" y="163"
          width="106" height="52"
          rx="5" fill="#cccccc" class="outer border"/>
    
    <!-- Outer Fill -->
    <rect x="176.5" y="163"
          width="106" height="52"
          rx="5" fill="#cccccc"/>
    

     
   
  </g>

  <g class='ghosted  keycap'
  >

  
    <!-- Outer Border -->
    <rect x="284.5" y="163"
          width="106" height="52"
          rx="5" fill="#cccccc" class="outer border"/>
    
    <!-- Outer Fill -->
    <rect x="284.5" y="163"
          width="106" height="52"
          rx="5" fill="#cccccc"/>
    

     
   
  </g>

  <g class='ghosted  keycap'
  >

  
    <!-- Outer Border -->
    <rect x="392.5" y="163"
          width="52" height="52"
          rx="5" fill="#cccccc" class="outer border"/>
    
    <!-- Outer Fill -->
    <rect x="392.5" y="163"
          width="52" height="52"
          rx="5" fill="#cccccc"/>
    

     
   
  </g>

  <g class='ghosted  keycap'
  >

  
    <!-- Outer Border -->
    <rect x="446.5" y="163"
          width="52" height="52"
          rx="5" fill="#cccccc" class="outer border"/>
    
    <!-- Outer Fill -->
    <rect x="446.5" y="163"
          width="52" height="52"
          rx="5" fill="#cccccc"/>
    

     
   
  </g>

  <g class='ghosted  keycap'
  >

  
    <!-- Outer Border -->
    <rect x="68.5" y="230.5"
          width="430" height="52"
          rx="5" fill="#cccccc" class="outer border"/>
    
    <!-- Outer Fill -->
    <rect x="68.5" y="230.5"
          width="430" height="52"
          rx="5" fill="#cccccc"/>
    

     
   
  </g>

      </g>
    </g>
  </svg>
